<?xml version="1.0" encoding="UTF-8" standalone="no"?>
<!-- Created with Inkscape (http://www.inkscape.org/) -->

<svg
   xmlns:dc="http://purl.org/dc/elements/1.1/"
   xmlns:cc="http://creativecommons.org/ns#"
   xmlns:rdf="http://www.w3.org/1999/02/22-rdf-syntax-ns#"
   xmlns:svg="http://www.w3.org/2000/svg"
   xmlns="http://www.w3.org/2000/svg"
   version="1.1"
   width="32"
   height="32.65625"
   id="svg3241">
  <metadata
     id="metadata3249">
    <rdf:RDF>
      <cc:Work
         rdf:about="">
        <dc:format>image/svg+xml</dc:format>
        <dc:type
           rdf:resource="http://purl.org/dc/dcmitype/StillImage" />
        <dc:title></dc:title>
      </cc:Work>
    </rdf:RDF>
  </metadata>
  <defs
     id="defs3247" />
  <path
     d="m 0.45537,16.28769 m 0,-10.49833 0,-5.33383 5.1645,0 5.1645,0 0,4.14854 0,3.9792 2.62459,2.53992 2.53991,2.62458 2.53992,-2.62458 2.53992,-2.53992 0,-3.9792 0,-4.14854 5.33383,0 5.1645,0 0,5.33383 0,5.33383 -3.89454,0 -3.97921,0 -2.62458,2.62458 -2.53992,2.53992 2.53992,2.62458 2.62458,2.62459 3.97921,0 3.89454,0 0,5.24916 0,5.41849 -5.1645,0 -5.33383,0 0,-4.06387 0,-3.9792 -2.53992,-2.62458 -2.53992,-2.62459 -2.53991,2.62459 -2.62459,2.62458 0,3.9792 0,4.06387 -5.1645,0 -5.1645,0 0,-5.41849 0,-5.24916 3.89454,0 3.89454,0 2.62459,-2.62459 2.53992,-2.62458 -2.53992,-2.53992 -2.62459,-2.62458 -3.89454,0 -3.89454,0 0,-5.33383"
     id="path3243"
     style="font-size:12.5px;font-style:normal;font-weight:normal;fill:#000000;stroke:#000000;stroke-width:0.92833275;font-family:Arial" />
</svg>
