<?xml version="1.0" encoding="UTF-8" standalone="no"?>
<!-- Created with Inkscape (http://www.inkscape.org/) -->

<svg
   xmlns:dc="http://purl.org/dc/elements/1.1/"
   xmlns:cc="http://creativecommons.org/ns#"
   xmlns:rdf="http://www.w3.org/1999/02/22-rdf-syntax-ns#"
   xmlns:svg="http://www.w3.org/2000/svg"
   xmlns="http://www.w3.org/2000/svg"
   version="1.1"
   width="32"
   height="54.1875"
   id="svg3013">
  <metadata
     id="metadata3021">
    <rdf:RDF>
      <cc:Work
         rdf:about="">
        <dc:format>image/svg+xml</dc:format>
        <dc:type
           rdf:resource="http://purl.org/dc/dcmitype/StillImage" />
        <dc:title></dc:title>
      </cc:Work>
    </rdf:RDF>
  </metadata>
  <defs
     id="defs3019" />
  <path
     d="M 1.645361,39.61554 M 1.148242,0.40535 c 0.12424,-0.0616 0.248559,-0.0616 0.434977,-0.0616 0.559265,0 1.056382,0.24843 1.242795,0.74576 0.06224,0.24826 0.06224,0.24826 0.06224,14.72704 l 0,14.60281 0.06226,-0.1856 c 2.361316,-1.98812 5.03334,-2.98249 7.394653,-2.98249 1.491376,0 2.920577,0.43483 4.101243,1.2424 l 0.248547,0.18557 0,-13.6708 0,-13.73278 0.124124,-0.24863 c 0.24855,-0.43503 0.683534,-0.68349 1.180661,-0.68349 0.49711,0 0.99424,0.24846 1.180651,0.74581 0.06241,0.24825 0.06241,0.24825 0.06241,14.72703 l 0,14.60281 0.186504,-0.1856 c 2.299207,-1.98826 4.846922,-2.98256 7.208252,-2.98256 0.932075,0 1.864169,0.12259 2.796259,0.49691 2.672022,0.93212 4.225528,3.54183 4.225528,6.64885 0,1.61601 -0.434974,3.4176 -1.367084,5.21995 -1.367035,2.48565 -3.107013,4.47376 -8.016033,8.82403 l -4.784787,4.53593 c -0.932108,0.86969 -0.994239,0.86969 -1.491329,0.86969 -0.435019,0 -0.683539,-0.12261 -0.932103,-0.37221 -0.372856,-0.37339 -0.372856,0 -0.372856,-4.03966 0,-0.62128 0,-1.36694 0,-2.36135 l 0,-5.65463 -0.310704,0.31065 c -1.429232,1.92638 -2.858442,3.3556 -6.524691,6.71158 l -4.78479,4.53608 C 2.205005,53.8465 2.018585,53.8465 1.583607,53.8465 c -0.497122,0 -0.994241,-0.31051 -1.180657,-0.80727 l -0.06225,-0.24884 0,-25.66392 0,-25.78794 L 0.40295,1.0903 C 0.589366,0.84167 0.83789,0.46855 1.148589,0.40647 M 8.48109,31.4764 C 8.232519,31.35403 7.859676,31.35403 7.611119,31.35403 c -0.186443,0 -0.3107,0 -0.434969,0 -1.615645,0.24858 -3.044864,1.24283 -4.039103,2.85837 l -0.248559,0.43494 0,7.2704 0,7.39469 0.186462,-0.24868 c 4.536199,-4.97099 7.518917,-10.68791 7.518917,-14.47848 l 0,-0.12262 c 0,-1.86413 -0.621391,-2.67204 -2.112748,-2.98279 m 14.35433,0 c -0.248541,-0.12283 -0.559254,-0.12283 -0.80782,-0.12283 -0.124053,0 -0.310706,0 -0.372823,0 -1.61565,0.24842 -3.044852,1.24271 -4.039093,2.85827 l -0.372875,0.43497 0,7.27033 0,7.39488 0.248559,-0.24859 c 4.536232,-4.97148 7.456826,-10.68818 7.456826,-14.47884 l 0,-0.12259 c 0,-1.86426 -0.497179,-2.67201 -2.112774,-2.98283"
     id="path3015"
     style="font-size:12.5px;font-style:normal;font-weight:normal;fill:#000000;stroke:#000000;stroke-width:0.68135834;font-family:Arial" />
</svg>
