<?xml version="1.0" encoding="UTF-8" standalone="no"?>
<!-- Created with Inkscape (http://www.inkscape.org/) -->

<svg
   xmlns:dc="http://purl.org/dc/elements/1.1/"
   xmlns:cc="http://creativecommons.org/ns#"
   xmlns:rdf="http://www.w3.org/1999/02/22-rdf-syntax-ns#"
   xmlns:svg="http://www.w3.org/2000/svg"
   xmlns="http://www.w3.org/2000/svg"
   version="1.1"
   width="32"
   height="98.625"
   id="svg3044">
  <metadata
     id="metadata3052">
    <rdf:RDF>
      <cc:Work
         rdf:about="">
        <dc:format>image/svg+xml</dc:format>
        <dc:type
           rdf:resource="http://purl.org/dc/dcmitype/StillImage" />
        <dc:title></dc:title>
      </cc:Work>
    </rdf:RDF>
  </metadata>
  <defs
     id="defs3050" />
  <path
     d="M 2.9992661,72.09568 M 2.0945559,0.737011 c 0.2261804,-0.11308 0.4523601,-0.11308 0.7916204,-0.11308 1.0177993,0 1.9224996,0.45235 2.2617699,1.35705 0.1130898,0.45236 0.1130898,0.45236 0.1130898,26.80191 l 0,26.575741 0.1130799,-0.33927 c 4.2973601,-3.61882 8.8208901,-5.42823 13.1182401,-5.42823 1.69632,0 3.39264,0.22617 5.08897,0.904699 5.088968,1.69633 7.803087,6.446031 7.803087,12.100441 0,2.9403 -0.904706,6.21986 -2.601027,9.499408 -2.48794,4.52353 -5.65442,8.14236 -14.4753,16.05853 l -8.7077897,8.25544 c -1.5832401,1.58324 -1.9225004,1.58324 -2.6010302,1.58324 -1.0177901,0 -1.9225003,-0.56544 -2.26175986,-1.47015 l -0.11309061,-0.45234 0,-46.705448 0,-46.931611 0.11309061,-0.45236 C 1.0767658,1.528631 1.5291159,0.850101 2.0945559,0.737011 M 15.438976,57.281132 c -0.45236,-0.226181 -1.13089,-0.226181 -1.58324,-0.226181 -0.33926,0 -0.56544,0 -0.79162,0 -2.94029,0.452351 -5.5413201,2.261771 -7.3507298,5.202061 l -0.4523502,0.791619 0,13.231319 0,13.4575 0.3392603,-0.45234 C 13.855736,80.23804 19.283976,69.833922 19.283976,62.935542 l 0,-0.22618 c 0,-3.39264 -1.13089,-4.86279 -3.845,-5.42823"
     id="path3046"
     style="font-size:12.5px;font-style:normal;font-weight:normal;fill:#000000;stroke:#000000;stroke-width:1.24000251;font-family:Arial" />
</svg>
