<?xml version="1.0" encoding="UTF-8" standalone="no"?>
<!-- Created with Inkscape (http://www.inkscape.org/) -->

<svg
   xmlns:dc="http://purl.org/dc/elements/1.1/"
   xmlns:cc="http://creativecommons.org/ns#"
   xmlns:rdf="http://www.w3.org/1999/02/22-rdf-syntax-ns#"
   xmlns:svg="http://www.w3.org/2000/svg"
   xmlns="http://www.w3.org/2000/svg"
   version="1.1"
   width="32"
   height="119.81618"
   id="svg3113">
  <metadata
     id="metadata3121">
    <rdf:RDF>
      <cc:Work
         rdf:about="">
        <dc:format>image/svg+xml</dc:format>
        <dc:type
           rdf:resource="http://purl.org/dc/dcmitype/StillImage" />
        <dc:title></dc:title>
      </cc:Work>
    </rdf:RDF>
  </metadata>
  <defs
     id="defs3119" />
  <path
     d="M 0.71505,59.847193 M 1.99523,0.95892269 c 0.38405,-0.25603 0.51207,-0.25603 1.28018,-0.25603 1.02414,0 1.92027,0.51207001 2.43234,1.66423001 l 0.12802,0.38405 0,15.3621603 c 0,8.5772 0,15.49017 0,15.49017 0,0 5.12072,-1.28017 11.13756,-2.81639 8.83324,-2.17631 11.00955,-2.8164 11.90567,-2.8164 0.51207,0 0.64009,0.12802 0.89613,0.25604 0.51207,0.25604 1.02414,0.76811 1.4082,1.28018 l 0.12801,0.51207 0,43.39809 0,43.782147 -0.12801,0.38405 c -0.51208,1.02415 -1.66424,1.53622 -2.43235,1.53622 -1.15216,0 -2.1763,-0.51207 -2.68837,-1.53622 l -0.12802,-0.38405 0,-15.87423 c 0,-9.729367 0,-15.746207 0,-15.746207 -0.12802,0 -5.12072,1.15216 -11.13756,2.81639 -8.70523,2.17631 -11.00955,2.8164 -11.90568,2.8164 -0.51207,0 -0.51207,-0.12802 -0.89612,-0.38405 -0.51207,-0.12802 -1.02414,-0.64009 -1.28018,-1.15217 l 0,-0.38405 0,-43.27007 0,-43.2700803 0,-0.38405 c 0.25604,-0.51207 0.76811,-1.15216 1.28018,-1.40820001 M 25.93459,57.030793 c 0,-2.43234 0,-4.60864 0,-6.14486 0,-5.50477 0,-5.88883 -0.12802,-5.88883 l 0,0 c 0,0 -4.60865,1.28018 -9.9854,2.43235 l -9.9854,2.56035 0,12.16171 c 0,6.52892 0,12.03369 0,12.03369 l 10.11342,-2.43234 9.9854,-2.56036 0,-12.16171"
     id="path3115"
     style="font-size:12.5px;font-style:normal;font-weight:normal;fill:#000000;stroke:#000000;stroke-width:1.40370584;font-family:Arial" />
</svg>
