<?xml version="1.0" encoding="UTF-8" standalone="no"?>
<!-- Created with Inkscape (http://www.inkscape.org/) -->

<svg
   xmlns:dc="http://purl.org/dc/elements/1.1/"
   xmlns:cc="http://creativecommons.org/ns#"
   xmlns:rdf="http://www.w3.org/1999/02/22-rdf-syntax-ns#"
   xmlns:svg="http://www.w3.org/2000/svg"
   xmlns="http://www.w3.org/2000/svg"
   version="1.1"
   width="32"
   height="19.282715"
   id="svg3386">
  <metadata
     id="metadata3401">
    <rdf:RDF>
      <cc:Work
         rdf:about="">
        <dc:format>image/svg+xml</dc:format>
        <dc:type
           rdf:resource="http://purl.org/dc/dcmitype/StillImage" />
        <dc:title></dc:title>
      </cc:Work>
    </rdf:RDF>
  </metadata>
  <defs
     id="defs3399" />
  <g
     transform="matrix(2.0514399,0,0,2.0514399,-1286.2528,-133.98528)"
     id="vf-m4n0">
    <g
       id="g3389">
      <g
         id="g3391">
        <path
           d="m 627,70 m 6.9048,-4.6368 c 0.2772,-0.0504 0.5544,-0.0504 0.8316,-0.0504 3.9816,0 7.308,1.764 7.7868,4.1328 0.0252,0.2268 0.0756,0.4284 0.0756,0.5796 0,2.5956 -3.4272,4.6872 -7.8372,4.6872 -4.41,0 -7.7616,-2.142 -7.7616,-4.6872 0,-0.3024 0.0252,-0.6048 0.126,-0.9324 0.6048,-1.9908 3.4272,-3.528 6.7788,-3.7296 m 0.378,0.5796 c -0.126,-0.0252 -0.3024,-0.0252 -0.4284,-0.0252 -1.5876,0 -2.5452,1.3608 -2.5452,3.0492 0,0.9072 0.2772,1.89 0.8568,2.8728 0.9576,1.512 2.3436,2.268 3.528,2.268 1.008,0 1.89,-0.5292 2.2932,-1.638 0.1764,-0.4536 0.252,-0.9072 0.252,-1.386 0,-2.268 -1.7388,-4.788 -3.9564,-5.1408"
           id="path3393"
           style="font-size:12.5px;font-style:normal;font-weight:normal;fill:#000000;stroke:none;font-family:Arial" />
      </g>
    </g>
    <g
       id="g3395" />
  </g>
</svg>
