<?xml version="1.0" encoding="UTF-8" standalone="no"?>
<!-- Created with Inkscape (http://www.inkscape.org/) -->

<svg
   xmlns:dc="http://purl.org/dc/elements/1.1/"
   xmlns:cc="http://creativecommons.org/ns#"
   xmlns:rdf="http://www.w3.org/1999/02/22-rdf-syntax-ns#"
   xmlns:svg="http://www.w3.org/2000/svg"
   xmlns="http://www.w3.org/2000/svg"
   version="1.1"
   width="32"
   height="74.940613"
   id="svg3034">
  <metadata
     id="metadata3057">
    <rdf:RDF>
      <cc:Work
         rdf:about="">
        <dc:format>image/svg+xml</dc:format>
        <dc:type
           rdf:resource="http://purl.org/dc/dcmitype/StillImage" />
        <dc:title></dc:title>
      </cc:Work>
    </rdf:RDF>
  </metadata>
  <defs
     id="defs3055" />
  <g
     transform="matrix(1.7545399,0,0,1.7545399,-140.26731,-56.145277)"
     id="vf-m0n0">
    <g
       id="g3037">
      <g
         id="g3039">
        <path
           d="m 89.94535,68 0,-36"
           id="path3041"
           style="font-size:12.5px;font-style:normal;font-weight:normal;fill:none;stroke:#000000;stroke-width:1.5;font-family:Arial" />
      </g>
      <g
         id="g3043">
        <path
           d="m 79.94535,70 m 6.6024,-4.6872 c 0.1008,0 0.252,0 0.2772,0 0,0 0.0252,0 0.0252,0 0,0 0.1512,0 0.2772,0 2.268,0.126 3.6036,1.6128 3.6036,3.4776 0,0.9072 -0.3024,1.9404 -1.0584,2.9232 -1.4364,1.9404 -3.78,2.9988 -5.8212,2.9988 -1.5876,0 -2.9484,-0.63 -3.6036,-1.9152 -0.2016,-0.504 -0.3024,-0.9828 -0.3024,-1.512 0,-2.7468 3.0744,-5.796 6.6024,-5.9724"
           id="path3045"
           style="font-size:12.5px;font-style:normal;font-weight:normal;fill:#000000;stroke:none;font-family:Arial" />
      </g>
      <g
         id="g3047">
        <path
           d="m 90.19535,32 m -0.6048,3.7044 0,-3.5784 0.1008,0 c 0.2016,0 0.4032,0.1512 0.4788,0.3528 0.1764,0.6048 0.8064,1.6884 1.4868,2.6208 0.882,1.26 1.9152,2.4192 3.4776,3.906 1.9656,1.9656 3.0492,4.5864 3.0492,7.3584 0,1.1844 -0.2268,2.4192 -0.5796,3.6036 l -0.126,0.2772 0.126,0.2772 c 0.3528,1.134 0.5796,2.3184 0.5796,3.4776 0,2.268 -0.7308,4.5612 -2.0664,6.5268 -0.1764,0.2016 -0.2772,0.3528 -0.6552,0.8316 -0.126,0.1764 -0.3276,0.3024 -0.504,0.3024 -0.1764,0 -0.3528,-0.126 -0.4536,-0.3276 -0.0252,-0.0756 -0.0756,-0.126 -0.0756,-0.252 0,-0.126 0.1008,-0.3024 0.3276,-0.5544 1.4364,-1.7136 2.2176,-3.9564 2.2176,-6.0732 0,-0.126 0,-0.1764 0,-0.252 0,-0.6048 -0.1008,-1.3608 -0.1764,-1.6884 -0.0252,-0.0756 -0.0756,-0.2016 -0.1008,-0.3528 -0.4536,-1.7388 -1.512,-3.3516 -2.9232,-4.3344 -0.756,-0.5544 -2.394,-0.9828 -3.78,-0.9828 -0.126,0 -0.2772,0 -0.3024,0 l -0.1008,0 0,-3.528 0,-3.5532 0.1008,0 c 0.2016,0 0.4032,0.126 0.4788,0.3528 0.1764,0.5796 0.8064,1.6632 1.4868,2.5704 0.882,1.3104 1.9656,2.4948 3.4272,3.9312 0.6804,0.6552 1.2852,1.386 1.638,2.016 0,0.0504 0.0504,0.0756 0.0504,0.0756 0.0252,0 0.0252,-0.0756 0.0756,-0.1764 0.1008,-0.6048 0.126,-1.1592 0.126,-1.7388 0,-0.5292 -0.0252,-1.0836 -0.126,-1.6632 0,-0.1008 -0.0504,-0.2016 -0.0504,-0.2268 -0.0252,-0.0756 -0.0756,-0.2268 -0.1008,-0.3528 -0.4536,-1.764 -1.512,-3.3516 -2.9232,-4.3344 -0.756,-0.5796 -2.394,-0.9576 -3.78,-0.9828 -0.126,0 -0.2772,0 -0.3024,0 l -0.1008,0 0,-3.528"
           id="path3049"
           style="font-size:12.5px;font-style:normal;font-weight:normal;fill:#000000;stroke:none;font-family:Arial" />
      </g>
    </g>
    <g
       id="g3051" />
  </g>
</svg>
