<?xml version="1.0" encoding="UTF-8" standalone="no"?>
<!-- Created with Inkscape (http://www.inkscape.org/) -->

<svg
   xmlns:dc="http://purl.org/dc/elements/1.1/"
   xmlns:cc="http://creativecommons.org/ns#"
   xmlns:rdf="http://www.w3.org/1999/02/22-rdf-syntax-ns#"
   xmlns:svg="http://www.w3.org/2000/svg"
   xmlns="http://www.w3.org/2000/svg"
   version="1.1"
   width="32"
   height="114.85655"
   id="svg3304">
  <metadata
     id="metadata3323">
    <rdf:RDF>
      <cc:Work
         rdf:about="">
        <dc:format>image/svg+xml</dc:format>
        <dc:type
           rdf:resource="http://purl.org/dc/dcmitype/StillImage" />
        <dc:title></dc:title>
      </cc:Work>
    </rdf:RDF>
  </metadata>
  <defs
     id="defs3321" />
  <g
     transform="matrix(2.9669189,0,0,2.9669189,-1415.2203,-106.80908)"
     id="vf-m3n0">
    <g
       id="g3307">
      <g
         id="g3309">
        <path
           d="m 487,68 0,-32"
           id="path3311"
           style="font-size:12.5px;font-style:normal;font-weight:normal;fill:none;stroke:#000000;stroke-width:1.5;font-family:Arial" />
      </g>
      <g
         id="g3313">
        <path
           d="m 477,70 m 6.6024,-4.6872 c 0.1008,0 0.252,0 0.2772,0 0,0 0.0252,0 0.0252,0 0,0 0.1512,0 0.2772,0 2.268,0.126 3.6036,1.6128 3.6036,3.4776 0,0.9072 -0.3024,1.9404 -1.0584,2.9232 -1.4364,1.9404 -3.78,2.9988 -5.8212,2.9988 -1.5876,0 -2.9484,-0.63 -3.6036,-1.9152 C 477.1008,72.2932 477,71.8144 477,71.2852 c 0,-2.7468 3.0744,-5.796 6.6024,-5.9724 m 2.6208,1.386 c -0.1008,-0.0504 -0.2268,-0.0756 -0.3528,-0.0756 -0.7812,0 -2.0916,0.4788 -3.3516,1.3356 -2.3436,1.4616 -4.2588,3.6036 -4.3344,4.8384 0,0 0,0.0252 0,0.0252 0,0.4284 0.2772,0.6048 0.756,0.6048 1.0332,0 2.9484,-0.882 4.7124,-2.2932 1.8144,-1.4364 2.9736,-3.0492 2.9736,-3.8808 0,-0.2772 -0.126,-0.504 -0.4032,-0.5544"
           id="path3315"
           style="font-size:12.5px;font-style:normal;font-weight:normal;fill:#000000;stroke:none;font-family:Arial" />
      </g>
    </g>
    <g
       id="g3317" />
  </g>
</svg>
