<?xml version="1.0" encoding="UTF-8" standalone="no"?>
<!-- Created with Inkscape (http://www.inkscape.org/) -->

<svg
   xmlns:dc="http://purl.org/dc/elements/1.1/"
   xmlns:cc="http://creativecommons.org/ns#"
   xmlns:rdf="http://www.w3.org/1999/02/22-rdf-syntax-ns#"
   xmlns:svg="http://www.w3.org/2000/svg"
   xmlns="http://www.w3.org/2000/svg"
   version="1.1"
   width="32"
   height="67.922447"
   id="svg3128">
  <metadata
     id="metadata3151">
    <rdf:RDF>
      <cc:Work
         rdf:about="">
        <dc:format>image/svg+xml</dc:format>
        <dc:type
           rdf:resource="http://purl.org/dc/dcmitype/StillImage" />
        <dc:title></dc:title>
      </cc:Work>
    </rdf:RDF>
  </metadata>
  <defs
     id="defs3149" />
  <g
     transform="matrix(1.7545399,0,0,1.7545399,-310.55356,-63.163436)"
     id="vf-m1n0">
    <g
       id="g3131">
      <g
         id="g3133">
        <path
           d="m 187,68 0,-32"
           id="path3135"
           style="font-size:12.5px;font-style:normal;font-weight:normal;fill:none;stroke:#000000;stroke-width:1.5;font-family:Arial" />
      </g>
      <g
         id="g3137">
        <path
           d="m 177,70 m 6.6024,-4.6872 c 0.1008,0 0.252,0 0.2772,0 0,0 0.0252,0 0.0252,0 0,0 0.1512,0 0.2772,0 2.268,0.126 3.6036,1.6128 3.6036,3.4776 0,0.9072 -0.3024,1.9404 -1.0584,2.9232 -1.4364,1.9404 -3.78,2.9988 -5.8212,2.9988 -1.5876,0 -2.9484,-0.63 -3.6036,-1.9152 C 177.1008,72.2932 177,71.8144 177,71.2852 c 0,-2.7468 3.0744,-5.796 6.6024,-5.9724"
           id="path3139"
           style="font-size:12.5px;font-style:normal;font-weight:normal;fill:#000000;stroke:none;font-family:Arial" />
      </g>
      <g
         id="g3141">
        <path
           d="m 187.25,36 m -0.6048,4.0572 0,-3.9312 0.1008,0 c 0.2772,0 0.4536,0.1764 0.504,0.4788 0.5292,2.52 2.1168,5.2668 4.3092,7.3332 2.4444,2.2932 3.6792,5.4432 3.6792,8.694 0,3.0744 -1.0836,6.2748 -3.276,8.9208 -0.378,0.504 -0.4032,0.504 -0.6552,0.504 -0.3024,0 -0.504,-0.2268 -0.504,-0.5292 0,-0.2268 0.0252,-0.2772 0.2772,-0.5544 1.9152,-2.3184 2.8728,-5.1156 2.8728,-7.7868 0,-2.3688 -0.756,-4.6368 -2.3184,-6.3504 -0.9576,-1.0584 -2.7216,-2.0664 -4.9644,-2.8476 0,-0.0252 -0.0252,-0.8064 -0.0252,-3.9312"
           id="path3143"
           style="font-size:12.5px;font-style:normal;font-weight:normal;fill:#000000;stroke:none;font-family:Arial" />
      </g>
    </g>
    <g
       id="g3145" />
  </g>
</svg>
