<?xml version="1.0" encoding="UTF-8" standalone="no"?>
<!-- Created with Inkscape (http://www.inkscape.org/) -->

<svg
   xmlns:dc="http://purl.org/dc/elements/1.1/"
   xmlns:cc="http://creativecommons.org/ns#"
   xmlns:rdf="http://www.w3.org/1999/02/22-rdf-syntax-ns#"
   xmlns:svg="http://www.w3.org/2000/svg"
   xmlns="http://www.w3.org/2000/svg"
   version="1.1"
   width="32"
   height="114.85655"
   id="svg3218">
  <metadata
     id="metadata3237">
    <rdf:RDF>
      <cc:Work
         rdf:about="">
        <dc:format>image/svg+xml</dc:format>
        <dc:type
           rdf:resource="http://purl.org/dc/dcmitype/StillImage" />
        <dc:title></dc:title>
      </cc:Work>
    </rdf:RDF>
  </metadata>
  <defs
     id="defs3235" />
  <g
     transform="matrix(2.9669189,0,0,2.9669189,-970.18248,-106.80908)"
     id="vf-m2n0">
    <g
       id="g3221">
      <g
         id="g3223">
        <path
           d="m 337,68 0,-32"
           id="path3225"
           style="font-size:12.5px;font-style:normal;font-weight:normal;fill:none;stroke:#000000;stroke-width:1.5;font-family:Arial" />
      </g>
      <g
         id="g3227">
        <path
           d="m 327,70 m 6.6024,-4.6872 c 0.1008,0 0.252,0 0.2772,0 0,0 0.0252,0 0.0252,0 0,0 0.1512,0 0.2772,0 2.268,0.126 3.6036,1.6128 3.6036,3.4776 0,0.9072 -0.3024,1.9404 -1.0584,2.9232 -1.4364,1.9404 -3.78,2.9988 -5.8212,2.9988 -1.5876,0 -2.9484,-0.63 -3.6036,-1.9152 C 327.1008,72.2932 327,71.8144 327,71.2852 c 0,-2.7468 3.0744,-5.796 6.6024,-5.9724"
           id="path3229"
           style="font-size:12.5px;font-style:normal;font-weight:normal;fill:#000000;stroke:none;font-family:Arial" />
      </g>
    </g>
    <g
       id="g3231" />
  </g>
</svg>
