<?xml version="1.0" encoding="UTF-8" standalone="no"?>
<!-- Created with Inkscape (http://www.inkscape.org/) -->

<svg
   xmlns:dc="http://purl.org/dc/elements/1.1/"
   xmlns:cc="http://creativecommons.org/ns#"
   xmlns:rdf="http://www.w3.org/1999/02/22-rdf-syntax-ns#"
   xmlns:svg="http://www.w3.org/2000/svg"
   xmlns="http://www.w3.org/2000/svg"
   version="1.1"
   width="32.000198"
   height="104.0625"
   id="svg3177">
  <metadata
     id="metadata3185">
    <rdf:RDF>
      <cc:Work
         rdf:about="">
        <dc:format>image/svg+xml</dc:format>
        <dc:type
           rdf:resource="http://purl.org/dc/dcmitype/StillImage" />
        <dc:title></dc:title>
      </cc:Work>
    </rdf:RDF>
  </metadata>
  <defs
     id="defs3183" />
  <path
     d="M 0.5119,51.98153 M 21.3045,0.71866 c 0.28746,-0.19163 0.38327,-0.19163 0.76655,-0.19163 0.95818,0 1.62891,0.38327 1.91637,1.24564 l 0.0958,0.28745 0.0958,12.55222 0,12.64803 2.49128,-0.67073 c 1.43728,-0.38327 2.49128,-0.47909 3.16201,-0.47909 0.86237,0 1.24564,0.28746 1.5331,1.05401 0.0958,0.28745 0.0958,2.49128 0.0958,4.88674 0,2.29964 0,4.6951 -0.0958,4.79092 -0.38328,0.95818 -0.67073,1.054 -3.25783,1.72473 -3.25783,0.86237 -3.92856,0.95819 -3.92856,0.95819 0,0 0,2.49128 0,6.22819 0,1.34146 0,2.77874 0,4.31183 l 0,10.3484 2.49128,-0.67073 c 1.5331,-0.38328 2.49128,-0.47909 3.16201,-0.47909 0.47909,0 0.86237,0.0958 1.14982,0.47909 0.4791,0.57491 0.4791,0.47909 0.4791,4.02437 l 0,1.43728 0,1.5331 c 0,3.54528 0,3.44946 -0.4791,3.92855 -0.38327,0.38328 -0.28745,0.38328 -4.6951,1.43728 -0.95819,0.28745 -1.82055,0.57491 -1.91637,0.57491 l -0.19164,0 0,12.74385 -0.0958,12.83967 -0.0958,0.38328 c -0.28746,0.76655 -1.05401,1.14982 -1.91637,1.14982 -0.57491,0 -1.43728,-0.38327 -1.82055,-1.14982 l -0.0958,-0.38328 0,-12.26476 0,-12.26476 -0.0958,0 -2.20382,0.57491 -4.1202,1.05401 c -1.054,0.28745 -2.01219,0.47909 -2.01219,0.47909 -0.19163,0 -0.19163,0.67073 -0.19163,13.03131 l 0,13.22294 -0.0958,0.28746 c -0.38327,0.76655 -1.14982,1.14982 -1.82055,1.14982 -0.76655,0 -1.62891,-0.38327 -2.01219,-1.14982 l -0.0958,-0.28746 0,-12.64803 c 0,-11.68985 0,-12.55222 -0.0958,-12.55222 0,0 0,0 0,0 -1.054,0.28746 -4.6951,1.24564 -5.07837,1.24564 -0.86237,0 -1.43728,-0.57491 -1.82055,-1.24564 0,-0.38327 0,-0.38327 0,-4.88674 l 0,-4.50347 0.0958,-0.38327 c 0.38328,-0.95819 0.38328,-0.95819 5.74911,-2.29964 l 1.14982,-0.28746 0,-10.44421 c 0,-9.67766 0,-10.34839 -0.0958,-10.34839 0,0 0,0 0,0 -1.054,0.28745 -4.6951,1.14982 -5.07837,1.14982 -0.86237,0 -1.43728,-0.47909 -1.82055,-1.14982 0,-0.38328 0,-0.38328 0,-4.88674 l 0,-4.50347 0.0958,-0.38327 c 0.38328,-0.95819 0.38328,-0.95819 5.74911,-2.29965 l 1.14982,-0.28745 0,-12.74386 0,-12.74385 0.0958,-0.38327 C 7.98582,4.83886 8.84818,4.26395 9.61473,4.26395 c 0.28745,0 0.47909,0.19163 0.76655,0.28745 0.38327,0.0958 0.76654,0.57491 1.054,0.95819 l 0.0958,0.38327 0,12.26476 0,12.16894 0.57491,0 c 0.19164,-0.0958 1.91637,-0.47909 3.6411,-0.86236 l 3.73692,-1.14982 0.67073,-0.0958 0,-13.03131 0,-13.12713 0.0958,-0.28745 c 0.28745,-0.38328 0.57491,-0.86237 1.054,-1.05401 m -1.14982,50.40051 c 0,-5.84493 0,-10.54003 0,-10.54003 l 0,0 c -0.0958,0 -1.054,0.28745 -2.20383,0.57491 l -4.21601,1.054 c -1.054,0.28746 -2.01219,0.47909 -2.01219,0.47909 -0.19163,0 -0.19163,0.57492 -0.19163,10.44422 l 0,10.54002 0.57491,-0.19163 c 0.19164,-0.0958 1.91637,-0.47909 3.6411,-0.86237 l 3.73692,-0.95818 0.67073,-0.28746 0,-10.25257"
     id="path3179"
     style="font-size:12.5px;font-style:normal;font-weight:normal;fill:#000000;stroke:#000000;stroke-width:1.05064094;font-family:Arial" />
</svg>
